<svg width="75" height="75" viewBox="0 0 75 75" version="1.1" xmlns="http://www.w3.org/2000/svg" xmlns:xlink="http://www.w3.org/1999/xlink">
<title>facebook</title>
<desc>Created using Figma</desc>
<g id="Canvas" transform="matrix(1.5 0 0 1.5 202.5 184.5)">
<g id="facebook">
<g id="Group">
<g id="Group">
<g id="Group">
<g id="Vector">
<use xlink:href="#path0_fill" transform="translate(-135 -123)" fill="#fff"/>
</g>
</g>
</g>
</g>
</g>
</g>
<defs>
<path id="path0_fill" d="M 44 0L 6 0C 2.5 0 0 2.5 0 6L 0 44C 0 47.5 2.5 50 6 50L 44 50C 47.5 50 50 47.5 50 44L 50 6C 50 2.5 47.5 0 44 0ZM 27 16C 27 17 27 18 27 18.5C 29 18.5 31 18.5 33 18.5C 33 20.5 32.5 22 32.5 24C 30.5 24 28.5 24 27 24C 27 30.5 27 37 27 43C 24.5 43 22 43 20 43C 20 36.5 20 30 20 24C 19 24 17.5 24 16 24C 16 22 16 20.5 16 18.5C 17 18.5 18.5 18.5 20 18.5C 20 15 20 12 21 10C 22 8 24 6.5 26.5 6.5C 29 6.5 32 6.5 34 7C 33.5 9 33.5 11 33 13C 31 12.5 28 12 27.5 13.5C 27 14.5 27 15 27 16Z"/>
</defs>
</svg>
