<svg xmlns="http://www.w3.org/2000/svg" viewBox="0 0 51.2 51.2">
  <circle fill="none" stroke="#93bf4e" stroke-width="2" stroke-miterlimit="10" cx="25.6" cy="25.6" r="24.6"/>
  <path fill="#93bf4e" d="M33.6 21.4c-1-.8-2-1.7-2.8-2.8-4.6-6-2.2-11-2.2-11C20 11.1 18.1 16.8 18 21c0 0 .1 2.5 1.2 5.2.4.9-.2 1.8-1.2 2-.6.1-1.3-.3-1.5-.8-.5-1.1-1.1-2.8-.9-3.9-1.4 1.9-2.3 4.1-2.5 6.7-.5 6.2 3.9 11.9 10 13.2 7.2 1.5 14-3.5 15-10.6.5-4.5-1.3-8.8-4.5-11.4zm-7.8 15.2c-2.1 0-4-1.2-5-2.9.7.3 1.4.4 2.1.4 3.1 0 5.7-2.5 5.7-5.7 0-1-.3-1.9-.7-2.7 2.1.8 3.5 2.9 3.5 5.2.1 3.2-2.5 5.7-5.6 5.7z"/>
</svg>