<svg xmlns="http://www.w3.org/2000/svg" width="70.3" height="70.3" viewBox="0 0 70.3 70.3">
  <style>
    .st0{fill:#93bf4e}
  </style>
  <g>
    <path class="st0" d="M8.8 37.1v3.7H6.7V28.6h4.4c2.8 0 4.1 1.4 4.1 4.2 0 2.8-1.4 4.4-4.1 4.4H8.8zm2.3-2c1.4 0 2-.9 2-2.4s-.7-2.2-2-2.2H8.8V35h2.3zm6.5 5.7V28.6h2.1v10.2h4.7v2h-6.8zm14.9-4.4l-1.4-5.9h-.8l-1.4 5.9-.4 2-.6 2.4h-2.1l2.9-12.2h4.1l2.9 12.2h-2.1l-.7-2.4m12.3 2.2s-2.1.4-3.5.4c-3.7 0-4.5-2.1-4.5-6.3 0-4.5 1.1-6.3 4.5-6.3 1.5 0 3.5.5 3.5.5l-.1 1.8s-2.1-.3-3.1-.3c-2.1 0-2.7 1-2.7 4.3 0 3.1.4 4.3 2.8 4.3 1 0 3.1-.3 3.1-.3v1.9zm2.3-12h7.6v2h-5.6v3.2H54v1.9h-4.5v3.1h5.6v2h-7.6V28.6zm8.7 0H65v2h-3.4v10.2h-2.1V30.6h-3.4v-2z"/>
    <g>
      <g>
        <path class="st0" d="M28.2 39.5c1.1-2.1 4.4-2.5 4.8-2.7 0 0 1.1-.6 1.4-1.1-.2-.4-.3-1.5-.5-2.1-.2.3-1.2 1.4-1.3 1.4-.3.2-1.6 1.1-3.4 2.2-1.5.9-2 2.4-2.1 2.9.2.3.5.5.8.7.1-.5.1-.8.3-1.3z"/>
      </g>
    </g>
    <g>
      <path class="st0" d="M35.1 2.9c17.8 0 32.2 14.4 32.2 32.2 0 17.8-14.4 32.2-32.2 32.2S2.9 52.9 2.9 35.1c0-17.7 14.5-32.2 32.2-32.2m0-2.9C15.7 0 0 15.7 0 35.1c0 19.4 15.7 35.1 35.1 35.1s35.1-15.7 35.1-35.1C70.3 15.7 54.5 0 35.1 0z"/>
    </g>
  </g>
</svg>
