<svg width="75" height="75" viewBox="0 0 75 75" version="1.1" xmlns="http://www.w3.org/2000/svg" xmlns:xlink="http://www.w3.org/1999/xlink">
<title>instagram</title>
<desc>Created using Figma</desc>
<g id="Canvas" transform="matrix(1.5 0 0 1.5 49.5 259.5)">
<g id="instagram">
<g id="Group">
<g id="Group">
<g id="Vector">
<use xlink:href="#path0_fill" transform="translate(-33 -173)" fill="#fff"/>
</g>
<g id="Vector">
<use xlink:href="#path1_fill" transform="translate(-20.6238 -161.119)" fill="#fff"/>
</g>
<g id="Vector">
<use xlink:href="#path2_fill" transform="translate(2.54762 -164.185)" fill="#fff"/>
</g>
</g>
</g>
</g>
</g>
<defs>
<path id="path0_fill" fill-rule="evenodd" d="M 25.2475 50C 21.7822 50 18.3168 50 14.8515 50C 11.8812 50 8.91089 49.5049 6.43564 48.0198C 2.9703 46.0396 0.990099 43.0693 0.495049 39.1089C 0 36.6337 0 34.1584 0 32.1782C 0 27.2277 0 22.2772 0 17.3267C 0 14.8515 0 11.8812 0.990099 9.40594C 2.47525 4.45545 5.94059 1.48515 10.8911 0.495049C 13.3663 0 15.8416 0 17.8218 0C 22.7723 0 27.7228 0 32.6733 0C 35.1485 0 38.1188 0 40.5941 0.990099C 45.5446 2.47525 48.5148 5.94059 49.5049 10.8911C 50 13.3663 50 15.3465 50 17.8218C 50 22.7723 50 27.7228 50 32.6733C 50 35.1485 50 38.1188 49.0099 40.5941C 47.5247 45.5446 44.0594 48.5148 39.1089 49.5049C 36.6337 50 34.6535 50 32.1782 50C 29.703 50 27.2277 50 25.2475 50ZM 45.5446 24.7525C 45.5446 22.7723 45.5446 20.7921 45.5446 18.8119C 45.5446 16.8317 45.5446 14.8515 45.0495 12.8713C 45.0495 8.91089 42.0792 5.94059 38.1188 4.95049C 36.1386 4.45545 33.6634 4.45545 31.1881 4.45545C 27.2277 4.45545 22.7723 4.45545 18.8119 4.45545C 16.8317 4.45545 14.3564 4.45545 12.3762 4.95049C 8.91089 5.44554 6.43564 7.42574 5.44554 11.3861C 4.95049 12.3762 4.95049 13.3663 4.95049 14.8515C 4.95049 19.3069 4.95049 23.7624 4.95049 28.2178C 4.95049 31.1881 4.95049 34.1584 5.44554 37.1287C 5.94059 41.5842 8.41584 44.0594 12.3762 45.0495C 14.8515 45.5446 16.8317 45.5446 19.3069 45.5446C 23.2673 45.5446 27.7228 45.5446 31.6832 45.5446C 33.6634 45.5446 35.6436 45.5446 37.6238 45.0495C 39.604 45.0495 41.0891 44.0594 42.5743 43.0693C 44.5545 41.5842 45.0495 39.1089 45.5446 36.1386C 45.5446 32.1782 45.5446 28.7129 45.5446 24.7525Z"/>
<path id="path1_fill" fill-rule="evenodd" d="M 12.8713 26.2376C 5.44554 26.2376 0 20.297 0 12.8713C 0 5.94059 5.94059 4.72116e-07 12.8713 4.72116e-07C 19.802 4.72116e-07 25.7426 5.94059 25.7426 12.8713C 25.7426 20.297 19.802 26.2376 12.8713 26.2376ZM 12.8713 21.2871C 17.3267 21.2871 20.7921 17.8218 20.7921 13.3663C 20.7921 8.91089 16.8317 4.9505 12.3762 4.9505C 7.92079 4.9505 3.9604 8.91089 3.9604 13.3663C 4.45545 17.8218 7.92079 21.2871 12.8713 21.2871Z"/>
<path id="path2_fill" fill-rule="evenodd" d="M 3.06625 0.0959477C 4.55139 0.0959477 6.03654 1.5811 6.03654 3.06625C 6.03654 4.55139 4.55139 6.03654 3.06625 6.03654C 1.08605 6.03654 -0.399103 4.55139 0.095947 3.06625C 0.095947 1.08605 1.08605 -0.399102 3.06625 0.0959477Z"/>
</defs>
</svg>
