<svg width="75" height="75" viewBox="0 0 75 75" version="1.1" xmlns="http://www.w3.org/2000/svg" xmlns:xlink="http://www.w3.org/1999/xlink">
<title>linkedin</title>
<desc>Created using Figma</desc>
<g id="Canvas" transform="matrix(1.5 0 0 1.5 34.5 159)">
<g id="linkedin">
<g id="Group">
<g id="post linkedin 2">
<g id="Vector">
<use xlink:href="#path0_fill" transform="translate(-23 -106)" fill="#fff"/>
</g>
</g>
</g>
</g>
</g>
<defs>
<path id="path0_fill" d="M 44.898 0L 5.10204 0C 2.04082 0 0 2.04082 0 5.10204L 0 44.898C 0 47.449 2.04082 50 5.10204 50L 44.898 50C 47.449 50 50 47.9592 50 44.898L 50 5.10204C 50 2.04082 47.449 0 44.898 0ZM 14.7959 42.3469L 7.65306 42.3469L 7.65306 19.898L 15.3061 19.898L 15.3061 42.3469L 14.7959 42.3469ZM 11.2245 15.8163C 8.67347 15.8163 6.63265 13.7755 6.63265 11.2245C 6.63265 8.67347 8.67347 6.63265 11.2245 6.63265C 13.7755 6.63265 15.8163 8.67347 15.8163 11.2245C 15.8163 13.7755 13.7755 15.8163 11.2245 15.8163ZM 42.3469 42.3469L 34.6939 42.3469L 34.6939 29.0816C 34.6939 27.0408 33.1633 25.5102 31.1224 25.5102C 29.0816 25.5102 27.551 27.0408 27.551 29.0816L 27.551 42.3469L 19.898 42.3469L 19.898 19.898L 27.551 19.898L 27.551 22.9592C 28.5714 20.9184 31.6327 19.3878 33.6735 19.3878C 38.2653 19.3878 42.3469 23.4694 42.3469 28.0612L 42.3469 42.3469Z"/>
</defs>
</svg>
