<svg xmlns="http://www.w3.org/2000/svg" width="241.833" height="71.75" viewBox="0 0 241.833 71.75">
  <g>
    <path fill="#93BF4E" d="M-617.167 8.933c14.787 0 26.817 12.03 26.817 26.817s-12.03 26.817-26.817 26.817-26.817-12.03-26.817-26.817 12.03-26.817 26.817-26.817m0-1.85c-15.832 0-28.667 12.834-28.667 28.667s12.835 28.667 28.667 28.667S-588.5 51.583-588.5 35.75s-12.835-28.667-28.667-28.667z"/>
    <g>
      <g>
        <path fill="#93BF4E" d="M-617.167 58.085c-12.297 0-22.336-10.039-22.336-22.336 0-12.296 10.039-22.334 22.336-22.334s22.334 10.038 22.334 22.334c0 12.297-10.037 22.336-22.334 22.336zm0-39.867c-9.654 0-17.531 7.877-17.531 17.531s7.877 17.532 17.531 17.532c9.653 0 17.531-7.878 17.531-17.532s-7.878-17.531-17.531-17.531z"/>
      </g>
      <g>
        <path fill="#93BF4E" d="M-617.167 48.862c-7.254 0-13.112-5.907-13.112-13.113 0-7.253 5.906-13.112 13.112-13.112 7.254 0 13.112 5.907 13.112 13.112a13.098 13.098 0 0 1-13.112 13.113zm0-21.422c-4.611 0-8.31 3.745-8.31 8.309 0 4.564 3.698 8.31 8.31 8.31s8.309-3.697 8.309-8.31a8.28 8.28 0 0 0-8.309-8.309z"/>
      </g>
      <circle fill="#93BF4E" cx="-617.167" cy="35.749" r="3.65"/>
    </g>
    <g fill="#93BF4E">
      <path d="M-452.321 9.119c14.579 0 26.44 11.861 26.44 26.441 0 14.579-11.861 26.44-26.44 26.44-14.58 0-26.441-11.861-26.441-26.44-.001-14.58 11.861-26.441 26.441-26.441m0-2.404c-15.93 0-28.845 12.915-28.845 28.845s12.915 28.845 28.845 28.845 28.844-12.914 28.844-28.845-12.915-28.845-28.844-28.845z"/>
      <path d="M-439.301 31.75h-1.866v-8.428c0-5.8-5.272-10.47-11.024-10.47-5.751 0-10.976 4.67-10.976 10.47v8.428h-2.235c-1.425 0-2.765.568-2.765 1.994V52.03c0 1.426 1.34 2.721 2.765 2.721h26.102c1.426 0 3.134-1.295 3.134-2.721V33.744c-.001-1.426-1.709-1.994-3.135-1.994zm-18.866-8.428c0-2.9 2.648-5.21 5.5-5.21s5.5 2.359 5.5 5.21v8.428h-11v-8.428zm12.861 25.385c-1.289 1.565-2.856 2.475-5.219 2.475-3.581 0-6.016-2.432-6.952-5.432h-1.077c-.653 0-1.192-.332-1.192-.988s.539-1.012 1.192-1.012h.703c-.023-1-.023-.172-.023-.428 0-.283 0-.572.023-.572h-.703c-.653 0-1.192-.832-1.192-1.488s.539-1.512 1.192-1.512h1.147c.96-3 3.347-5.351 6.811-5.351 2.434 0 3.886.823 5.102 2.109.233.237.491.659.491 1.197 0 .935-.795 1.675-1.732 1.675a1.622 1.622 0 0 1-1.238-.545c-.749-.842-1.546-1.226-2.693-1.226-1.379 0-2.385 1.14-2.971 2.14h3.254c.653 0 1.191.856 1.191 1.512s-.538 1.488-1.191 1.488h-3.815c-.024 0-.024.242-.024.523s0-.523.024.477h3.815c.653 0 1.191.355 1.191 1.012s-.538.988-1.191.988h-3.301c.585 2 1.661 2.228 3.16 2.228 1.169 0 1.918-.455 2.737-1.393.28-.325.679-.542 1.216-.542.89 0 1.615.734 1.615 1.625 0 .421-.187.829-.35 1.04z"/>
    </g>
  </g>
  <g>
    <g>
      <path fill="#2D2A65" d="M-101.259 35.473l10.103 13.902h-6.023l-9.318-13.354h-.887v13.354h-4.924V16.754h5.767c4.312 0 7.425.811 9.34 2.429 2.113 1.803 3.171 4.182 3.171 7.141 0 2.312-.664 4.296-1.986 5.958-1.328 1.663-3.074 2.727-5.243 3.191zm-6.126-3.739h1.563c4.664 0 6.992-1.782 6.992-5.347 0-3.337-2.266-5.006-6.801-5.006h-1.755v10.353zm-194.252.961h13.479v1.078c0 2.45-.29 4.619-.867 6.506-.563 1.749-1.512 3.379-2.853 4.901-3.026 3.41-6.878 5.115-11.557 5.115-4.562 0-8.472-1.648-11.725-4.947-3.253-3.309-4.882-7.28-4.882-11.914 0-4.733 1.656-8.749 4.966-12.044 3.308-3.308 7.339-4.964 12.084-4.964 2.552 0 4.931.521 7.142 1.563 2.114 1.042 4.19 2.732 6.233 5.069l-3.506 3.362c-2.677-3.564-5.938-5.346-9.785-5.346-3.45 0-6.342 1.189-8.679 3.568-2.342 2.339-3.512 5.271-3.512 8.791 0 3.634 1.305 6.628 3.91 8.979 2.438 2.182 5.076 3.274 7.924 3.274 2.421 0 4.6-.815 6.529-2.45 1.927-1.647 3.008-3.621 3.23-5.916h-8.134v-4.625z"/>
      <path fill="#93BF4E" d="M-238.379 36.436v13.246h-4.926V17.061h5.582c2.731 0 4.793.189 6.187.569 1.408.38 2.648 1.099 3.722 2.154 1.871 1.833 2.808 4.14 2.808 6.931 0 2.986-1.002 5.353-2.998 7.099-2.001 1.747-4.697 2.621-8.092 2.621h-2.283zm0-4.565h1.837c4.522 0 6.784-1.738 6.784-5.218 0-3.367-2.333-5.05-6.996-5.05h-1.625v10.268z"/>
      <path fill="#2D2A65" d="M-221.562 33.222c0-4.592 1.684-8.537 5.052-11.832 3.351-3.295 7.379-4.943 12.082-4.943 4.648 0 8.636 1.663 11.96 4.985 3.338 3.325 5.006 7.318 5.006 11.979 0 4.693-1.675 8.671-5.026 11.938-3.367 3.284-7.432 4.926-12.191 4.926-4.212 0-7.994-1.458-11.347-4.375-3.689-3.225-5.536-7.451-5.536-12.678zm4.966.065c0 3.604 1.21 6.57 3.634 8.896 2.408 2.32 5.19 3.484 8.348 3.484 3.419 0 6.307-1.184 8.66-3.55 2.352-2.394 3.528-5.311 3.528-8.749 0-3.478-1.162-6.393-3.486-8.747-2.312-2.366-5.168-3.547-8.576-3.547-3.396 0-6.265 1.181-8.6 3.547-2.339 2.34-3.508 5.228-3.508 8.666zm35.536-16.226l8.496 21.804 8.871-23.389 8.494 23.389 9.022-21.804h5.342l-14.576 34.693-8.39-23.115-8.747 23.135-13.859-34.712h5.347zm62.287 4.626h-13.078v7.839h12.698v4.626h-12.698v10.902h13.078v4.628h-18.002V17.061h18.002v4.626zm-21.182-14.852c-.062-.707-.288-1.24-.691-1.598-.399-.357-1.011-.534-1.826-.534-.589 0-1.12.13-1.587.391a3.795 3.795 0 0 0-1.177 1.03 4.664 4.664 0 0 0-.74 1.446 5.37 5.37 0 0 0-.256 1.626c0 .483.062.902.197 1.259.131.357.315.654.558.891.241.238.522.414.851.532.33.116.688.172 1.082.172.534 0 .994-.092 1.39-.284a3.175 3.175 0 0 0 1.002-.738 3.83 3.83 0 0 0 .66-1.021c.168-.383.292-.761.372-1.139h-2.862l.084-.414h3.282l-.807 3.827h-.363l.363-1.608h-.046c-.35.553-.77.99-1.253 1.313-.485.319-1.105.479-1.864.479a3.98 3.98 0 0 1-1.141-.168c-.377-.113-.715-.301-1.009-.563s-.532-.603-.711-1.023c-.179-.418-.269-.935-.269-1.549 0-.37.038-.748.122-1.137.077-.385.199-.759.361-1.12.159-.361.357-.7.595-1.017a4.25 4.25 0 0 1 .826-.831 3.773 3.773 0 0 1 2.328-.771c.408 0 .795.05 1.149.147.355.099.669.252.934.46a2.3 2.3 0 0 1 .645.792c.164.321.259.704.28 1.147h-.479zm1.549 1.446c.149-.628.429-1.076.845-1.347.416-.269.941-.406 1.576-.406.137 0 .305.017.507.05.201.034.391.099.573.198.184.097.337.231.467.403.126.172.189.399.189.685 0 .122-.015.284-.055.488-.036.198-.076.397-.12.593-.042.197-.086.376-.124.538-.04.16-.062.26-.071.307-.038.145-.075.303-.118.479a7.389 7.389 0 0 0-.121.513c-.038.168-.069.324-.095.467s-.04.252-.04.332c0 .103.027.189.078.258.052.07.128.103.23.103a.727.727 0 0 0 .186-.021l.187-.042-.067.37c-.08.023-.161.038-.246.044a3.339 3.339 0 0 1-.232.011c-.191 0-.328-.063-.419-.198a.687.687 0 0 1-.099-.605c.023-.09.04-.172.059-.248h-.022c-.111.206-.25.38-.419.525a2.374 2.374 0 0 1-.537.361 2.32 2.32 0 0 1-.587.208 2.762 2.762 0 0 1-1.257-.015 1.481 1.481 0 0 1-.553-.265 1.256 1.256 0 0 1-.372-.462 1.61 1.61 0 0 1-.136-.702c0-.357.068-.649.205-.874.139-.227.322-.404.556-.525.227-.122.489-.21.785-.257a7.34 7.34 0 0 1 .925-.084c.392-.013.721-.04.984-.08.262-.04.473-.103.634-.185a.785.785 0 0 0 .345-.336c.067-.139.104-.311.104-.525 0-.349-.105-.626-.322-.836-.218-.206-.577-.311-1.088-.311-.503 0-.916.114-1.236.334-.321.223-.542.574-.668 1.057h-.431zm3.524.83h-.023a.795.795 0 0 1-.336.191 4.86 4.86 0 0 1-.473.122 4.32 4.32 0 0 1-.509.067c-.168.017-.315.027-.431.036a8.637 8.637 0 0 0-.777.052c-.253.03-.483.093-.684.188a1.216 1.216 0 0 0-.487.41c-.124.181-.183.42-.183.727 0 .212.035.391.119.536.078.145.186.265.317.355.128.092.282.158.454.198.17.04.352.059.538.059.336 0 .631-.057.878-.172a1.97 1.97 0 0 0 .65-.479 2.64 2.64 0 0 0 .445-.693c.122-.261.225-.538.303-.831l.199-.766zm1.704 1.257c0 .044-.002.088-.004.132-.002.042-.007.088-.007.13 0 .525.171.891.509 1.105.341.21.803.315 1.396.315.153 0 .317-.025.492-.076a1.76 1.76 0 0 0 .494-.229c.15-.103.277-.229.376-.376a.944.944 0 0 0 .149-.521c-.011-.269-.091-.483-.248-.639a1.976 1.976 0 0 0-.578-.395 5.714 5.714 0 0 0-.75-.278 3.97 3.97 0 0 1-.744-.3 1.879 1.879 0 0 1-.57-.456c-.153-.181-.227-.424-.216-.731 0-.263.057-.492.175-.685a1.42 1.42 0 0 1 .46-.475 2.03 2.03 0 0 1 .639-.273 2.943 2.943 0 0 1 1.458.007c.233.063.439.151.614.267.175.118.313.265.416.446.101.176.151.378.151.605 0 .065-.002.126-.006.185l-.016.231h-.416c.009-.067.013-.126.018-.185.004-.059.008-.118.008-.177a.944.944 0 0 0-.452-.824 1.52 1.52 0 0 0-.48-.21 2.336 2.336 0 0 0-.576-.072 2.6 2.6 0 0 0-.529.055 1.8 1.8 0 0 0-.507.187c-.16.086-.288.204-.389.343a.87.87 0 0 0-.155.532.76.76 0 0 0 .139.464c.092.13.21.24.354.334.146.095.31.177.5.246.184.069.373.137.562.202.197.067.389.139.576.219.185.08.351.176.498.29.145.113.261.248.347.403.088.16.133.345.133.567 0 .275-.06.519-.18.731-.121.21-.279.387-.475.53-.199.143-.42.248-.668.315a2.732 2.732 0 0 1-.77.105c-.298 0-.576-.029-.841-.088a2.018 2.018 0 0 1-.685-.282 1.444 1.444 0 0 1-.458-.521 1.71 1.71 0 0 1-.169-.791v-.264c0-.029.005-.063.011-.099h.414zm12.305.14c.062-.086.118-.189.175-.311.059-.118.111-.244.16-.378.046-.13.09-.256.128-.38.042-.124.075-.237.093-.34h.418c-.08.351-.186.679-.315.99a4.495 4.495 0 0 1-.416.782l.905 1.413h-.489l-.689-1.072c-.29.357-.618.647-.979.87-.361.221-.79.332-1.294.332-.317 0-.604-.042-.868-.13a1.93 1.93 0 0 1-.671-.372 1.683 1.683 0 0 1-.437-.591 1.933 1.933 0 0 1-.158-.798c0-.349.069-.652.211-.908.143-.254.327-.475.546-.668.223-.187.473-.355.752-.502.275-.145.551-.288.82-.427-.082-.139-.166-.281-.253-.433a3.86 3.86 0 0 1-.232-.452 3.214 3.214 0 0 1-.171-.469 1.889 1.889 0 0 1-.067-.496c0-.282.049-.525.149-.727.097-.2.228-.362.394-.486s.351-.212.562-.267a2.65 2.65 0 0 1 .667-.082c.263 0 .491.04.683.12.195.08.357.187.483.317.128.13.223.275.281.437.065.16.095.317.095.471 0 .283-.064.536-.191.754-.128.218-.29.416-.485.588a3.73 3.73 0 0 1-.651.466 27.01 27.01 0 0 1-.683.378l1.527 2.371zm-1.901-2.164c-.235.126-.476.252-.729.378-.25.126-.481.275-.688.441-.21.168-.376.368-.509.593a1.6 1.6 0 0 0-.195.809c0 .212.045.408.129.591.088.181.21.34.365.471.16.13.343.233.547.311.21.078.435.113.677.113.174 0 .354-.025.542-.08.191-.055.376-.133.557-.231a2.85 2.85 0 0 0 .509-.366c.157-.147.305-.315.435-.504l-1.64-2.526zm.773-3.38c-.164 0-.328.029-.483.088a1.35 1.35 0 0 0-.416.242 1.072 1.072 0 0 0-.286.37 1.17 1.17 0 0 0-.104.494c0 .151.021.302.065.447.047.145.099.288.166.427a4 4 0 0 0 .217.403c.084.135.157.261.231.383l.577-.311c.213-.114.41-.24.593-.383.184-.143.334-.302.456-.485.118-.183.181-.389.181-.624a.98.98 0 0 0-.334-.757c-.222-.195-.508-.294-.863-.294zm7.725-.491h.481l-1.586 7.393h4.406l-.088.417h-4.889l1.676-7.81zm4.899 2.189h.414l-1.171 5.62h-.414l1.171-5.62zm.458-2.189h.418l-.23 1.126h-.419l.231-1.126zm.545 8.204c0 .458.143.803.428 1.038.284.231.656.349 1.114.349.396 0 .721-.052.987-.16a1.77 1.77 0 0 0 .647-.429 2.06 2.06 0 0 0 .408-.651c.097-.252.181-.521.243-.805l.253-1.116h-.021c-.21.372-.483.66-.815.864-.33.204-.721.307-1.164.307-.349 0-.658-.055-.918-.164a1.657 1.657 0 0 1-.65-.471 2.02 2.02 0 0 1-.382-.721 3.037 3.037 0 0 1-.13-.929c0-.395.062-.786.187-1.177.124-.391.305-.74.538-1.051.231-.309.521-.559.868-.749a2.415 2.415 0 0 1 1.177-.286c.244 0 .483.038.71.116.223.076.425.183.595.317.173.134.31.298.412.492.101.193.155.408.164.641h.019l.321-1.432h.414l-1.157 5.357a5.319 5.319 0 0 1-.319 1.023 2.443 2.443 0 0 1-.52.752c-.215.21-.479.366-.795.471-.311.105-.691.16-1.135.16-.271 0-.522-.038-.761-.116a1.596 1.596 0 0 1-1.012-.884 1.652 1.652 0 0 1-.119-.748h.413zm2.777-5.788a1.95 1.95 0 0 0-.998.259c-.296.17-.544.393-.746.666-.199.273-.351.58-.458.925-.103.34-.155.681-.155 1.017 0 .612.135 1.093.412 1.438.279.347.723.521 1.334.521.381 0 .713-.097.998-.292.282-.191.521-.435.715-.733.193-.294.336-.62.431-.979.097-.355.144-.698.144-1.025 0-.345-.057-.628-.175-.857a1.719 1.719 0 0 0-.427-.553 1.546 1.546 0 0 0-.546-.296 1.835 1.835 0 0 0-.529-.091zm4.4-2.416h.413l-.723 3.371h.025a2.99 2.99 0 0 1 .938-.954c.38-.239.824-.361 1.328-.361.208 0 .412.036.604.105a1.487 1.487 0 0 1 .86.799c.086.194.13.412.13.651 0 .063-.006.149-.015.25-.013.103-.023.208-.044.317-.017.109-.038.214-.055.311-.019.099-.034.181-.048.246l-.689 3.075h-.416l.688-3.062c.007-.051.02-.124.04-.219.015-.095.034-.195.055-.3a86 86 0 0 1 .047-.324 1.83 1.83 0 0 0 .022-.284c0-.357-.115-.647-.343-.87-.232-.221-.559-.334-.98-.334-.357 0-.678.084-.955.252a2.702 2.702 0 0 0-.737.651 4.06 4.06 0 0 0-.517.885 4.77 4.77 0 0 0-.303.956l-.563 2.648h-.412l1.65-7.809zm4.396 2.189h1.04l.383-1.763h.416l-.387 1.763h1.206l-.088.359h-1.182l-.854 3.916c-.01.013-.015.046-.022.092-.009.048-.015.097-.027.153a1.61 1.61 0 0 0-.025.158.742.742 0 0 0-.013.109c0 .16.051.28.146.357.099.076.262.113.491.113.2 0 .408-.01.62-.031l-.073.359c-.078 0-.171.006-.297.017-.124.013-.25.017-.382.017-.33 0-.565-.072-.707-.219-.143-.147-.212-.353-.212-.624 0-.072.011-.162.031-.263.021-.101.04-.193.055-.273l.854-3.882h-1.062l.089-.358zm-65.583 49.497l-1.424 11.643-6.616-8.44-.943 7.692h-1.616l1.416-11.491 6.616 8.427.96-7.83h1.607zm8.238 0l-.185 1.5h-4.001l-.35 2.825h4.004l-.168 1.396h-4.002l-.453 3.671h4.003l-.191 1.503h-5.611l1.341-10.895h5.613zm5.455 5.22l2.718 5.675h-1.694l-2.023-4.334-3.017 4.334h-1.889l4.136-5.845-2.394-5.05h1.713l1.681 3.745 2.55-3.745h1.906l-3.687 5.22zm8.307-3.72l-1.158 9.395h-1.616l1.158-9.395h-2.606l.186-1.5h6.71l-.181 1.5h-2.493z"/>
      <path fill="#93BF4E" d="M-126.524 65.551l-.188 1.503h-7.053l4.35-4.792c.45-.494.813-.903 1.078-1.223.268-.317.456-.56.558-.726.197-.312.298-.691.298-1.128 0-.27-.042-.509-.122-.724a1.481 1.481 0 0 0-.916-.893 2.11 2.11 0 0 0-.739-.12 2.26 2.26 0 0 0-.808.131c-.23.086-.424.223-.58.403a2.083 2.083 0 0 0-.378.706 4.399 4.399 0 0 0-.191 1.017h-1.53c.078-1.071.303-1.87.667-2.392.62-.885 1.573-1.328 2.86-1.328 1.002 0 1.803.292 2.399.877.607.578.903 1.345.903 2.299 0 .624-.123 1.162-.371 1.625-.124.23-.322.513-.591.845-.273.336-.614.731-1.023 1.189l-2.522 2.729h3.899z"/>
      <path fill="#2D2A65" d="M-115.474 62.178l-.597 4.876h-1.616l.62-4.989-2.831-5.905h1.738l2.011 4.331 2.858-4.331h1.855l-4.038 6.018zm15.073-.786c0 1.244-.33 2.371-.989 3.384a5.314 5.314 0 0 1-2.045 1.841c-.843.434-1.774.647-2.798.647-1.631 0-2.963-.517-3.992-1.56-1.032-1.042-1.545-2.394-1.545-4.05 0-1.651.544-3.016 1.635-4.092 1.1-1.084 2.482-1.626 4.15-1.626 1.671 0 3.021.502 4.044 1.505 1.027.998 1.54 2.316 1.54 3.951zm-1.624-.013c0-1.189-.354-2.144-1.06-2.857-.706-.711-1.651-1.065-2.844-1.065-1.195 0-2.2.396-3.012 1.199-.807.799-1.21 1.8-1.21 2.999 0 1.188.376 2.167 1.122 2.944.748.771 1.694 1.156 2.837 1.156 1.194 0 2.184-.416 2.972-1.248.797-.824 1.195-1.866 1.195-3.128zm12.441-5.22l-.79 6.447c-.179 1.421-.514 2.461-.999 3.123-.788 1.023-1.881 1.534-3.274 1.534-1.124 0-2.057-.336-2.803-1.015-.746-.686-1.118-1.541-1.118-2.554a11.904 11.904 0 0 1 .098-1.451l.75-6.086h1.607l-.767 6.292c-.025.189-.042.361-.055.521a8.286 8.286 0 0 0-.017.445c0 .727.201 1.299.607 1.715.405.42.965.631 1.664.631.817 0 1.444-.266 1.864-.791.425-.533.71-1.396.859-2.591l.763-6.223h1.611z"/>
      <g>
        <g>
          <path fill="#2B2D63" d="M-254.839 18.415s-1.279-.803-5.148 2.595c-3.869 3.396-7.952 6.664-11.134 8.728-3.183 2.064-4.477 3.167-7.57 2.724-3.094-.445-3.308 8.843-3.308 8.843s1.759 2.736 5.302 2.19c3.562-.547 21.312-18.831 21.312-18.831s1.648-4.501.546-6.249zm-18.369 30.977s3.619 2.446 8.011-.09c4.395-2.537 15.533-12.083 15.533-12.083l1.476-4.558s-.273-1.46-2.766 0c-2.497 1.463-12.169 7.988-13.674 8.875-1.507.887-3.354 1.917-5.977 2.606-2.623.689-2.603 5.25-2.603 5.25z"/>
          <path fill="#93BF4E" d="M-266.338 4.288s-.631 4.069-9.344 13.128c-8.714 9.058-8.684 15.169-8.024 18.689.595 3.184 1.375 4.699 1.72 5.216 0 0 .106-6.708 6.817-12.613 6.71-5.905 11.756-9.915 12.843-11.006 1.091-1.089 6.363-7.051-4.012-13.414zm11.499 14.127s7.68 7.969 2.865 11.18c-4.815 3.211-20.291 9.861-19.379 20.579 0 0-8.023-1.717-4.411-10.201 3.61-8.486 17.827-16.512 18.573-17.027.001-.001 3.328-1.837 2.352-4.531zm-8.645 32.195c2.86-.092 14.041-1.597 15.296-18.149 0 0-.173 4.3-10.146 9.861-8.477 4.725-7.098 7.305-6.146 8.038 0 0 .407.27.996.25z"/>
        </g>
        <path fill="#2D2A65" d="M-256.813 57.103h-18.525a.786.786 0 0 1-.786-.784v-2.341c0-.431.353-.782.786-.782h18.525c.433 0 .785.352.785.782v2.341a.787.787 0 0 1-.785.784zm-2.288 1.395h-13.956c-.99 0-1.802.809-1.802 1.801s.812 1.804 1.802 1.804h1.939c.744 0 .967.912 1.034 1.438 0 .021-.005.037-.005.059v.305c0 .99.813 1.801 1.802 1.801h5.024c.992 0 1.804-.811 1.804-1.801 0 0 .027-1.801 1.062-1.801h1.295c.992 0 1.804-.812 1.804-1.804s-.81-1.802-1.803-1.802z"/>
      </g>
    </g>
    <g>
      <g fill="#FFF">
        <path d="M225.216 35.526l10.171 14.004h-6.064l-9.386-13.452h-.893V49.53h-4.959V16.674h5.809c4.344 0 7.479.813 9.409 2.445 2.127 1.815 3.19 4.215 3.19 7.194 0 2.325-.666 4.326-2.001 6-1.333 1.677-3.092 2.745-5.276 3.213zm-6.172-3.765h1.574c4.695 0 7.045-1.793 7.045-5.383 0-3.363-2.285-5.046-6.854-5.046h-1.766v10.429zm-195.65.968h13.574v1.084c0 2.469-.288 4.655-.871 6.556-.567 1.76-1.524 3.406-2.872 4.935-3.052 3.437-6.932 5.153-11.64 5.153-4.598 0-8.533-1.661-11.812-4.982-3.276-3.333-4.916-7.333-4.916-12.001 0-4.767 1.666-8.811 5.001-12.129 3.334-3.333 7.391-5.001 12.172-5.001 2.567 0 4.968.525 7.192 1.576 2.13 1.051 4.22 2.75 6.278 5.108l-3.53 3.382c-2.695-3.59-5.982-5.386-9.854-5.386-3.477 0-6.392 1.2-8.747 3.596-2.355 2.357-3.532 5.307-3.532 8.854 0 3.66 1.312 6.675 3.936 9.044 2.456 2.199 5.115 3.299 7.98 3.299 2.441 0 4.632-.822 6.577-2.469 1.943-1.659 3.028-3.647 3.255-5.958h-8.191v-4.661zm63.71 3.769v13.34h-4.956V16.981h5.616c2.755 0 4.832.192 6.235.574 1.418.382 2.667 1.106 3.745 2.17 1.889 1.847 2.832 4.17 2.832 6.98 0 3.009-1.008 5.39-3.023 7.15-2.014 1.759-4.73 2.642-8.149 2.642h-2.3zm0-4.601h1.854c4.555 0 6.832-1.751 6.832-5.255 0-3.389-2.35-5.086-7.045-5.086h-1.641v10.341zm16.941 1.363c0-4.625 1.696-8.597 5.087-11.916 3.376-3.319 7.434-4.98 12.172-4.98 4.682 0 8.696 1.674 12.045 5.022 3.36 3.349 5.043 7.372 5.043 12.065 0 4.726-1.688 8.734-5.064 12.022-3.392 3.308-7.483 4.959-12.279 4.959-4.241 0-8.051-1.467-11.427-4.405-3.719-3.245-5.577-7.503-5.577-12.767zm5.002.064c0 3.632 1.219 6.62 3.66 8.96 2.426 2.341 5.226 3.511 8.405 3.511 3.446 0 6.354-1.191 8.725-3.574 2.371-2.411 3.554-5.35 3.554-8.811 0-3.502-1.17-6.441-3.511-8.811-2.327-2.383-5.206-3.575-8.64-3.575-3.419 0-6.309 1.191-8.661 3.575-2.355 2.355-3.532 5.266-3.532 8.725zm35.792-16.343l8.555 21.961 8.938-23.556 8.557 23.556 9.084-21.961h5.386l-14.684 34.942-8.448-23.281-8.809 23.302-13.961-34.964h5.382zm62.735 4.662h-13.173v7.893h12.791v4.662h-12.791v10.98h13.173v4.66h-18.132V16.981h18.132v4.662zM186.239 6.684c-.06-.713-.293-1.249-.694-1.61-.405-.359-1.019-.538-1.841-.538-.594 0-1.127.13-1.595.397a3.814 3.814 0 0 0-1.192 1.034 4.812 4.812 0 0 0-.742 1.454 5.348 5.348 0 0 0-.259 1.642c0 .483.066.906.196 1.267.135.359.32.658.564.897.24.239.527.416.857.536.332.118.694.175 1.092.175.536 0 1.002-.096 1.398-.288.396-.188.73-.438 1.008-.743.275-.304.498-.645.667-1.029.169-.382.292-.763.373-1.145h-2.885l.09-.418h3.304l-.816 3.854h-.362l.362-1.619h-.045a4.3 4.3 0 0 1-1.26 1.322c-.488.323-1.116.487-1.879.487-.391 0-.773-.058-1.15-.173a2.621 2.621 0 0 1-1.013-.568 2.814 2.814 0 0 1-.718-1.031c-.18-.421-.269-.94-.269-1.555 0-.376.04-.76.121-1.147a5.406 5.406 0 0 1 .964-2.154c.238-.32.517-.598.83-.835a3.962 3.962 0 0 1 1.063-.57 3.832 3.832 0 0 1 1.283-.209c.412 0 .797.051 1.157.151.359.099.673.252.94.461.269.211.486.476.653.799.164.322.256.709.279 1.157h-.481zm1.563 1.455c.148-.634.432-1.083.849-1.356.418-.271.946-.408 1.587-.408.141 0 .309.017.512.049s.396.1.579.198c.184.101.339.235.468.408.128.173.191.403.191.688 0 .126-.017.288-.055.491-.037.203-.077.401-.12.6-.045.199-.085.378-.128.538-.038.165-.064.267-.07.312-.039.145-.077.307-.122.482a14.77 14.77 0 0 0-.214.986 2.082 2.082 0 0 0-.038.335c0 .103.026.19.077.258.051.07.128.107.23.107a.952.952 0 0 0 .188-.023c.066-.015.129-.028.187-.043l-.066.374a1.202 1.202 0 0 1-.248.042 2.197 2.197 0 0 1-.237.013c-.189 0-.328-.068-.416-.198a.69.69 0 0 1-.135-.385c0-.062.011-.134.034-.229.024-.089.041-.173.056-.245h-.021c-.11.205-.25.38-.42.527a2.488 2.488 0 0 1-.539.363 2.477 2.477 0 0 1-.594.211 2.886 2.886 0 0 1-.584.064c-.242 0-.471-.025-.684-.083-.214-.053-.399-.141-.558-.263s-.282-.278-.374-.468a1.656 1.656 0 0 1-.137-.707c0-.361.068-.654.21-.88a1.4 1.4 0 0 1 .555-.53c.233-.126.495-.211.792-.258.299-.047.609-.075.934-.081.395-.017.727-.043.991-.083.263-.042.476-.103.638-.19a.758.758 0 0 0 .347-.335c.07-.139.104-.314.104-.527 0-.353-.109-.634-.322-.843-.218-.208-.583-.314-1.1-.314-.504 0-.921.113-1.243.337-.322.224-.547.576-.671 1.063h-.433zm3.548.835h-.021a.83.83 0 0 1-.342.194 4.623 4.623 0 0 1-.987.192c-.173.015-.318.026-.434.032a9.21 9.21 0 0 0-.784.055c-.256.03-.486.092-.688.188a1.231 1.231 0 0 0-.491.415c-.124.177-.188.423-.188.73 0 .213.042.395.122.54.08.147.186.265.32.359.132.092.285.156.456.198.173.041.354.06.545.06.337 0 .634-.058.889-.175.252-.12.468-.28.646-.48a2.82 2.82 0 0 0 .455-.698c.12-.267.22-.544.301-.839l.201-.771zm1.718 1.266c0 .047-.002.09-.007.132-.004.045-.006.09-.006.132 0 .53.173.901.513 1.113.341.213.812.32 1.407.32.153 0 .318-.026.493-.077.177-.051.344-.128.497-.232a1.35 1.35 0 0 0 .379-.378.932.932 0 0 0 .148-.525c-.008-.271-.089-.485-.247-.643a2.003 2.003 0 0 0-.585-.397 5.702 5.702 0 0 0-.754-.282c-.271-.079-.52-.18-.748-.301s-.418-.273-.572-.459c-.153-.182-.229-.427-.222-.735 0-.267.058-.498.177-.692.118-.192.27-.352.462-.478.192-.124.405-.216.645-.276a3.053 3.053 0 0 1 1.472.007c.234.062.441.153.615.269.177.117.315.267.42.446.103.181.154.384.154.611 0 .066-.002.13-.004.19a3.999 3.999 0 0 0-.018.23h-.419c.005-.066.013-.128.016-.188.002-.06.006-.117.006-.177a.957.957 0 0 0-.452-.831 1.662 1.662 0 0 0-.482-.211 2.387 2.387 0 0 0-.586-.07c-.171 0-.344.019-.529.055a1.743 1.743 0 0 0-.513.188 1.197 1.197 0 0 0-.389.346.892.892 0 0 0-.155.534.79.79 0 0 0 .137.468c.094.128.213.243.358.337.147.096.313.179.502.248.188.068.376.139.565.203a8.4 8.4 0 0 1 .581.222c.186.079.353.177.5.291s.265.25.353.408c.089.16.132.348.132.568 0 .28-.06.525-.182.737a1.699 1.699 0 0 1-.479.536c-.2.143-.423.25-.673.318-.249.07-.508.104-.769.104-.303 0-.585-.03-.85-.087a1.98 1.98 0 0 1-.688-.286 1.413 1.413 0 0 1-.464-.523c-.115-.218-.17-.484-.17-.798v-.264c0-.028.002-.062.01-.101h.421zm12.392.145a3.575 3.575 0 0 0 .336-.693l.135-.386c.038-.124.07-.239.092-.342h.418a6.182 6.182 0 0 1-.318.997 4.6 4.6 0 0 1-.42.788l.914 1.42h-.494l-.695-1.078a3.985 3.985 0 0 1-.984.875c-.365.224-.799.335-1.308.335-.313 0-.606-.042-.869-.132a1.922 1.922 0 0 1-.677-.374 1.656 1.656 0 0 1-.439-.596 1.919 1.919 0 0 1-.163-.805c0-.35.073-.656.216-.914a2.49 2.49 0 0 1 .551-.67c.225-.192.477-.359.756-.506.278-.147.554-.29.827-.429l-.257-.438a5.017 5.017 0 0 1-.234-.455 2.988 2.988 0 0 1-.171-.474 1.84 1.84 0 0 1-.066-.495c0-.286.049-.532.149-.735.099-.201.23-.363.396-.489a1.59 1.59 0 0 1 .567-.269c.214-.056.436-.083.673-.083.263 0 .493.043.688.122.194.082.356.188.485.318a1.336 1.336 0 0 1 .38.914c0 .288-.064.542-.192.76-.128.22-.293.418-.491.596s-.419.333-.653.468c-.239.137-.47.263-.691.38l1.539 2.39zm-1.915-2.182c-.235.126-.48.252-.734.38a3.84 3.84 0 0 0-.694.449c-.207.167-.38.365-.513.591-.13.229-.196.5-.196.818a1.368 1.368 0 0 0 .502 1.068c.156.132.34.235.551.314a1.976 1.976 0 0 0 1.226.032 2.638 2.638 0 0 0 1.069-.6c.162-.145.31-.316.444-.506l-1.655-2.546zm.781-3.404a1.432 1.432 0 0 0-.909.333 1.112 1.112 0 0 0-.39.87c0 .154.021.305.066.453.042.145.1.288.166.427.064.139.139.277.218.408.081.132.158.26.23.384.18-.094.372-.199.587-.314.212-.111.408-.239.594-.384.184-.143.336-.308.455-.489.122-.184.184-.395.184-.627a.972.972 0 0 0-.337-.762c-.223-.199-.513-.299-.864-.299zm7.778-.496h.483l-1.598 7.448h4.441l-.09.417h-4.924l1.688-7.865zm4.933 2.204h.418l-1.179 5.661h-.418l1.179-5.661zm.463-2.204h.417l-.23 1.136h-.419l.232-1.136zm.549 8.262c0 .463.146.809.432 1.046.286.235.659.352 1.123.352.396 0 .726-.053.991-.16.265-.106.482-.252.655-.434.173-.184.308-.403.408-.655.098-.254.181-.523.249-.81l.25-1.125h-.019a2.383 2.383 0 0 1-.822.869 2.191 2.191 0 0 1-1.175.312c-.35 0-.66-.056-.925-.167a1.672 1.672 0 0 1-.653-.474 2.02 2.02 0 0 1-.387-.726 3.208 3.208 0 0 1-.128-.935c0-.397.064-.792.188-1.186.125-.395.305-.745.54-1.057.234-.314.527-.563.875-.756a2.412 2.412 0 0 1 1.184-.286c.252 0 .489.039.718.115.229.077.427.184.6.318a1.48 1.48 0 0 1 .578 1.143h.021l.318-1.444h.421l-1.168 5.398c-.081.389-.186.73-.32 1.029a2.427 2.427 0 0 1-.523.76 2.127 2.127 0 0 1-.796.474c-.316.107-.699.158-1.147.158-.271 0-.527-.039-.765-.115a1.718 1.718 0 0 1-.617-.34 1.558 1.558 0 0 1-.403-.551 1.687 1.687 0 0 1-.122-.756h.419zm2.8-5.827c-.376 0-.711.087-1.008.26a2.437 2.437 0 0 0-.75.67c-.2.278-.356.585-.463.931a3.51 3.51 0 0 0-.16 1.023c0 .617.141 1.102.42 1.45.278.35.727.523 1.344.523a1.74 1.74 0 0 0 1.004-.292c.283-.194.525-.44.72-.737.196-.299.339-.625.436-.986.096-.361.143-.707.143-1.036 0-.346-.06-.634-.177-.865a1.704 1.704 0 0 0-.43-.557 1.56 1.56 0 0 0-.551-.295 1.878 1.878 0 0 0-.528-.089zm4.428-2.435h.417l-.727 3.391h.023c.25-.395.564-.713.946-.957s.826-.363 1.332-.363c.214 0 .417.034.611.104a1.481 1.481 0 0 1 .865.804c.09.196.133.412.133.655 0 .068-.004.152-.018.254a3.84 3.84 0 0 1-.045.32 7.31 7.31 0 0 1-.053.314c-.018.098-.036.182-.049.246l-.694 3.096h-.421l.696-3.083a5.1 5.1 0 0 1 .038-.22l.056-.305a12.9 12.9 0 0 0 .05-.322 2.17 2.17 0 0 0 .021-.286c0-.361-.115-.651-.346-.875-.232-.225-.562-.337-.984-.337-.36 0-.684.085-.968.254a2.679 2.679 0 0 0-.736.656 3.914 3.914 0 0 0-.523.893 5.01 5.01 0 0 0-.307.963l-.562 2.665h-.418l1.663-7.867zm4.427 2.204h1.047l.387-1.772h.416l-.385 1.772h1.213l-.087.363h-1.192l-.857 3.944c-.012.015-.016.044-.023.092-.007.049-.018.1-.026.153a1.529 1.529 0 0 0-.027.16.732.732 0 0 0-.013.111c0 .162.049.28.151.359.096.077.261.115.489.115.205 0 .414-.011.627-.034l-.076.365c-.075 0-.173.004-.297.017a4.44 4.44 0 0 1-.387.015c-.331 0-.568-.072-.709-.22-.146-.146-.216-.357-.216-.628 0-.075.011-.16.032-.263.021-.104.041-.196.056-.277l.858-3.91h-1.068l.087-.362zM163.65 56.361l-1.435 11.729-6.663-8.504-.952 7.752h-1.628l1.429-11.576 6.66 8.488.968-7.889h1.621zm8.294 0l-.184 1.514h-4.031l-.349 2.843h4.034l-.174 1.405h-4.029l-.455 3.698h4.03l-.192 1.517h-5.65l1.35-10.977h5.65zm5.497 5.258l2.735 5.719h-1.704l-2.04-4.369-3.036 4.369h-1.905l4.164-5.89-2.408-5.087h1.728l1.691 3.773 2.566-3.773h1.92l-3.711 5.258zm8.365-3.744l-1.164 9.463h-1.627l1.166-9.463h-2.625l.184-1.514h6.764l-.184 1.514h-2.514zm13.964 7.946l-.192 1.517h-7.103l4.38-4.831a35.01 35.01 0 0 0 1.087-1.228c.271-.322.457-.568.562-.734.201-.314.299-.694.299-1.136 0-.27-.04-.513-.123-.729a1.571 1.571 0 0 0-.357-.551c-.153-.152-.342-.268-.563-.349s-.474-.121-.747-.121c-.308 0-.577.045-.81.132a1.431 1.431 0 0 0-.587.41 2.048 2.048 0 0 0-.381.707 4.485 4.485 0 0 0-.191 1.024H193.5c.081-1.078.306-1.883.675-2.408.621-.891 1.58-1.337 2.879-1.337 1.01 0 1.814.295 2.417.882.606.583.909 1.356.909 2.317 0 .625-.126 1.17-.375 1.636-.125.232-.32.515-.597.852-.271.338-.614.734-1.031 1.196l-2.539 2.75h3.932zm11.129-3.399l-.603 4.916h-1.627l.626-5.027-2.852-5.949h1.747l2.026 4.363 2.879-4.363h1.871l-4.067 6.06zm15.179-.788a6.125 6.125 0 0 1-.995 3.406 5.352 5.352 0 0 1-2.062 1.855c-.848.434-1.785.651-2.814.651-1.645 0-2.985-.523-4.023-1.569-1.038-1.053-1.557-2.413-1.557-4.081 0-1.661.549-3.036 1.648-4.121 1.104-1.092 2.498-1.636 4.182-1.636 1.683 0 3.038.504 4.074 1.514 1.031 1.006 1.547 2.332 1.547 3.981zm-1.636-.015c0-1.198-.354-2.157-1.065-2.879-.711-.715-1.668-1.074-2.866-1.074-1.204 0-2.217.404-3.034 1.209-.812.805-1.217 1.815-1.217 3.021 0 1.193.38 2.185 1.132 2.964.754.779 1.703 1.166 2.857 1.166 1.199 0 2.195-.418 2.991-1.258.803-.828 1.202-1.876 1.202-3.149zm12.534-5.258l-.797 6.496c-.179 1.431-.517 2.478-1.01 3.142-.79 1.033-1.89 1.548-3.297 1.548-1.128 0-2.069-.34-2.823-1.021-.75-.692-1.121-1.551-1.121-2.573 0-.218.004-.448.025-.689.015-.244.038-.5.073-.77l.751-6.133h1.621l-.775 6.338a19.01 19.01 0 0 0-.051.525 5.72 5.72 0 0 0-.02.448c0 .73.205 1.308.612 1.73.412.42.973.63 1.677.63.824 0 1.45-.263 1.88-.795.424-.536.715-1.405.864-2.609l.769-6.268h1.622z"/>
        <g>
          <g>
            <path opacity=".5" d="M70.527 18.348s-1.288-.81-5.185 2.612c-3.896 3.421-8.011 6.711-11.214 8.79-3.205 2.08-4.51 3.192-7.626 2.744-3.113-.448-3.331 8.907-3.331 8.907s1.772 2.759 5.339 2.208c3.592-.551 21.468-18.969 21.468-18.969s1.66-4.53.549-6.292zm-18.5 31.195s3.642 2.467 8.068-.088c4.427-2.556 15.642-12.167 15.642-12.167l1.486-4.591s-.273-1.474-2.784 0c-2.512 1.471-12.256 8.046-13.771 8.937-1.515.893-3.379 1.933-6.021 2.625-2.64.692-2.62 5.284-2.62 5.284z"/>
            <path d="M58.946 4.115s-.634 4.102-9.411 13.225c-8.776 9.121-8.749 15.279-8.085 18.824.603 3.208 1.387 4.734 1.732 5.254 0 0 .111-6.757 6.869-12.704 6.757-5.947 11.84-9.988 12.938-11.085s6.408-7.103-4.043-13.514zm11.581 14.233s7.739 8.023 2.887 11.258c-4.852 3.233-20.44 9.932-19.516 20.729 0 0-8.085-1.731-4.446-10.278 3.637-8.546 17.957-16.629 18.709-17.15 0 0 3.351-1.847 2.366-4.559zm-8.706 32.425c2.881-.093 14.143-1.61 15.402-18.28 0 0-.173 4.331-10.218 9.933-8.536 4.758-7.147 7.358-6.187 8.095.001 0 .413.271 1.003.252z"/>
          </g>
          <path d="M68.539 57.312H49.877a.792.792 0 0 1-.79-.79v-2.355c0-.434.354-.79.79-.79h18.662c.434 0 .792.356.792.79v2.355c0 .433-.358.79-.792.79zm-2.302 1.405H52.179a1.82 1.82 0 0 0-1.814 1.815 1.82 1.82 0 0 0 1.814 1.817h1.954c.748 0 .972.918 1.045 1.445-.003.021-.009.041-.009.062v.308c0 .995.818 1.813 1.817 1.813h5.059a1.82 1.82 0 0 0 1.815-1.813s.025-1.814 1.074-1.814h1.303a1.818 1.818 0 0 0 0-3.633z"/>
        </g>
      </g>
    </g>
  </g>
</svg>
