<svg width="63" height="75" viewBox="0 0 63 75" version="1.1" xmlns="http://www.w3.org/2000/svg" xmlns:xlink="http://www.w3.org/1999/xlink">
<title>youtube</title>
<desc>Created using Figma</desc>
<g id="Canvas" transform="matrix(1.5 0 0 1.5 -94.5 214.5)">
<g id="youtube">
<g id="Group">
<g id="Group">
<g id="Group">
<g id="Vector">
<use xlink:href="#path0_fill" transform="translate(63 -143)" fill="#fff"/>
</g>
</g>
</g>
</g>
</g>
</g>
<defs>
<path id="path0_fill" d="M 26.5 35L 26.5 41C 26.5 42.5 26 43 25.5 43C 25 43 24.5 43 24 42.5L 24 33.5C 24.5 33 25 33 25.5 33C 26 33 26.5 33.5 26.5 35ZM 36 35L 36 36.5L 33.5 36.5L 33.5 35C 33.5 33.5 34 33 35 33C 35.5 33 36 33.5 36 35ZM 9 28.5L 12 28.5L 12 26L 3 26L 3 28.5L 6 28.5L 6 44.5L 9 44.5L 9 28.5L 9 28.5ZM 17 44.5L 19.5 44.5L 19.5 31L 17 31L 17 41.5C 16.5 42 16 42.5 15.5 42.5C 15 42.5 15 42.5 14.5 42C 14.5 42 14.5 41.5 14.5 41L 14.5 31L 12 31L 12 42C 12 43 12 43.5 12 44C 12.5 44.5 13 45 14 45C 15 45 16 44.5 17 43L 17 44.5ZM 29 40.5L 29 35C 29 33.5 29 32.5 28.5 32C 28.5 31 27.5 30.5 26.5 30.5C 25.5 30.5 25 31 24 32L 24 26L 21.5 26L 21.5 44.5L 24 44.5L 24 43.5C 25 44.5 26 45 26.5 45C 27.5 45 28 44.5 28.5 43.5C 29 43 29 42 29 40.5ZM 38.5 40L 36 40C 36 41 36 41.5 36 41.5C 36 42 35.5 42.5 35 42.5C 34 42.5 33.5 42 33.5 40.5L 33.5 38L 38.5 38L 38.5 35.5C 38.5 34 38 33 37.5 32C 37 31 36 30.5 34.5 30.5C 33 30.5 32 31 31.5 32C 31 33 31 34 31 35.5L 31 40.5C 31 42 31.5 43 32 43.5C 32.5 44.5 33.5 45 34.5 45C 36 45 37 44.5 37.5 43.5C 38 43 38 42.5 38 42C 38.5 41.5 38.5 41 38.5 40ZM 21.5 14.5L 21.5 9C 21.5 7.5 21 7 20.5 7C 19.5 7 19.5 7.5 19.5 9L 19.5 15C 19.5 16.5 20 17 20.5 17C 21 16.5 21.5 16 21.5 14.5ZM 41.5 35.5C 41.5 40 41.5 43 41 45.5C 40.5 46.5 40 47.5 39 48.5C 38.5 49 37.5 49.5 36.5 49.5C 33 50 27.5 50 20.5 50C 14 50 8.5 50 5 49.5C 4 49.5 3 49 2 48C 1.5 47.5 1 46.5 0.5 45.5C 0 43.5 0 40 0 35.5C 0 31 0 28 0.5 25.5C 1 25 1.5 24 2.5 23C 3 22.5 4 22 5 22C 8.5 21.5 13.5 21.5 20.5 21.5C 27.5 21.5 32.5 21.5 36 22C 37 22 38 22.5 39 23.5C 40 24 40.5 25 40.5 26C 41 28 41.5 31.5 41.5 35.5ZM 13.5 0L 16.5 0L 13 11L 13 18.5L 10 18.5L 10 11C 10 10 9.5 8 8.5 5C 8 3.5 7 1.5 6.5 0L 9.5 0L 11.5 7.5L 13.5 0ZM 24 9.5L 24 14.5C 24 16 23.5 17 23 18C 22.5 18.5 21.5 19 20 19C 18.5 19 18 18.5 17 17.5C 16.5 17 16.5 15.5 16.5 14L 16.5 9C 16.5 7.5 17 6.5 17.5 5.5C 18 5 19 4.5 20 4.5C 21.5 4.5 22.5 5 23 6C 23.5 6.5 24 8 24 9.5ZM 33.5 5L 33.5 19L 30.5 19L 30.5 17C 29.5 18.5 29 19 28 19C 27 19 26.5 18.5 26.5 18C 26.5 17.5 26.5 17 26.5 16L 26.5 5L 29 5L 29 15C 29 15.5 29 16 29 16C 29 16.5 29 16.5 29.5 16.5C 30 16.5 30.5 16 31 15.5L 31 5L 33.5 5Z"/>
</defs>
</svg>
