<?xml version="1.0" encoding="UTF-8" standalone="no"?><!DOCTYPE svg PUBLIC "-//W3C//DTD SVG 1.1//EN" "http://www.w3.org/Graphics/SVG/1.1/DTD/svg11.dtd"><svg width="100%" height="100%" viewBox="0 0 294 294" version="1.1" xmlns="http://www.w3.org/2000/svg" xmlns:xlink="http://www.w3.org/1999/xlink" xml:space="preserve" style="fill-rule:evenodd;clip-rule:evenodd;stroke-linejoin:round;stroke-miterlimit:1.41421;"><path d="M146.529,0c-80.925,0 -146.529,65.604 -146.529,146.529c0,80.925 65.604,146.529 146.529,146.529c80.925,0 146.525,-65.604 146.525,-146.529c0,-80.925 -65.6,-146.529 -146.525,-146.529m0,12.212c74.059,0 134.313,60.255 134.313,134.317c0,74.063 -60.254,134.317 -134.313,134.317c-74.062,0 -134.316,-60.254 -134.316,-134.317c0,-74.062 60.254,-134.317 134.316,-134.317" style="fill:#93bf4e;fill-rule:nonzero;"/><path d="M183.618,63.737l9.458,-9.475l33.288,108.625l-3.092,3.158c-19.079,20.871 -40.271,28.517 -63.6,22.925c-17.983,-4.188 -33.567,-1.092 -46.771,9.333l26.013,84.871l-15.017,4.608l-57.204,-186.633l4.004,-3.271c18.729,-15.866 40.192,-21.446 64.379,-16.754c18.071,3.433 34.25,-2.362 48.542,-17.387" style="fill:#93bf4e;fill-rule:nonzero;"/><path d="M124.609,151.16c-1.983,-5.388 -3.683,-15.034 7.65,-31.692c11.334,-16.667 11.234,-23.263 11.234,-23.263c18.112,7.259 11.383,18.1 9.945,20.117c-1.42,2.017 -8.308,9.708 -17.32,20.85c-9.025,11.133 -7.392,21.767 -7.392,21.767c-0.679,-0.729 -2.317,-2.904 -4.117,-7.779" style="fill:#fff;fill-rule:nonzero;"/><path d="M147.917,170.064c0,0 -13.138,-0.546 -9.713,-14.933c3.417,-14.388 23.725,-30.892 24.767,-31.909c0,0 4.767,-3.795 2.504,-7.787c0,0 14.275,10.525 7.529,16.896c-6.746,6.366 -29.412,21.041 -25.087,37.733" style="fill:#fff;fill-rule:nonzero;"/><path d="M162.256,168.636c-0.929,0.191 -2.533,-0.125 -2.533,-0.125c-1.713,-0.9 -3.25,-4.609 8.875,-14.359c13.129,-10.558 14.733,-17.175 14.733,-18.162l0,-0.146l0,0.146c0,26.354 -16.592,31.729 -21.075,32.646" style="fill:#fff;fill-rule:nonzero;"/></svg>