<svg width="75" height="75" viewBox="0 0 75 75" version="1.1" xmlns="http://www.w3.org/2000/svg" xmlns:xlink="http://www.w3.org/1999/xlink">
<title>Group_1</title>
<desc>Created using Figma</desc>
<g id="Canvas" transform="translate(-90 -152)">
<g id="Group_1">
<g id="Group">
<g id="Group">
<g id="Vector">
<use xlink:href="#path0_fill" transform="translate(90 152)" fill="#92BE4E"/>
</g>
</g>
<g id="Group">
<g id="Vector">
<use xlink:href="#path1_fill" transform="translate(100.472 173.37)" fill="#92BE4E"/>
</g>
</g>
</g>
</g>
</g>
<defs>
<path id="path0_fill" d="M 37.5 1.02197e-05C 16.7898 1.02197e-05 -9.74067e-06 16.7885 -9.74067e-06 37.5C -9.74067e-06 58.2115 16.7898 75 37.5 75C 58.2102 75 75 58.2115 75 37.5C 75 16.7885 58.2102 1.02197e-05 37.5 1.02197e-05ZM 37.5 2.42001C 56.8432 2.42001 72.58 18.1568 72.58 37.5C 72.58 56.8432 56.8432 72.58 37.5 72.58C 18.1568 72.58 2.42003 56.8432 2.42003 37.5C 2.42003 18.1568 18.1568 2.42001 37.5 2.42001Z"/>
<path id="path1_fill" d="M 27.54 30.0502C 27.1802 30.062 26.929 29.8972 26.929 29.8972C 26.3456 29.4472 25.5006 27.8669 30.6925 24.9721C 36.3135 21.8391 36.8525 19.3642 36.9022 18.9887C 36.9035 18.9691 36.9074 18.9534 36.9087 18.9338C 36.9087 18.9338 36.9061 18.9573 36.9022 18.9887C 36.1121 29.0718 29.2902 29.994 27.54 30.0502ZM 22.7195 29.782C 22.7195 29.782 17.8062 28.7316 20.0182 23.5344C 22.229 18.3346 30.9384 13.4188 31.395 13.1048C 31.395 13.1048 33.4317 11.9785 32.8365 10.329C 32.8365 10.329 37.5392 15.2095 34.5894 17.177C 31.6409 19.1444 22.1609 23.2166 22.7195 29.782ZM 15.152 21.1654C 14.7504 19.0097 14.7295 15.2645 20.0666 9.71673C 25.4051 4.16766 25.791 1.67572 25.791 1.67572C 32.1458 5.57263 28.9174 9.22492 28.2476 9.89206C 27.5831 10.5605 24.492 13.0171 20.3819 16.6328C 16.2718 20.251 16.2064 24.3599 16.2064 24.3599C 15.9944 24.0433 15.5183 23.1159 15.152 21.1654ZM 53.6514 14.8119C 46.755 5.63802 37.3417 8.30352e-06 27.0271 8.30352e-06C 16.7139 8.30352e-06 7.29803 5.638 0.404215 14.8707C -0.134733 15.6504 -0.134733 16.6707 0.404215 17.4503C 7.29803 26.6242 16.7139 32.261 27.0271 32.261C 37.3417 32.261 46.755 26.6243 53.6514 17.3902C 54.1917 16.6119 54.1917 15.5902 53.6514 14.8119Z"/>
</defs>
</svg>
