<svg xmlns="http://www.w3.org/2000/svg" width="57.7" height="57.7" viewBox="0 0 57.7 57.7">
  <g fill="#93BF4E">
    <path d="M28.8 2.4c14.6 0 26.4 11.9 26.4 26.4 0 14.6-11.9 26.4-26.4 26.4-14.6 0-26.4-11.9-26.4-26.4 0-14.5 11.9-26.4 26.4-26.4m0-2.4C12.9 0 0 12.9 0 28.8s12.9 28.8 28.8 28.8 28.8-12.9 28.8-28.8C57.7 12.9 44.8 0 28.8 0z"/>
    <path d="M41.9 25H40v-8.4c0-5.8-5.3-10.5-11-10.5-5.8 0-11 4.7-11 10.5V25h-2.2c-1.4 0-2.8.6-2.8 2v18.3c0 1.4 1.3 2.7 2.8 2.7h26.1c1.4 0 3.1-1.3 3.1-2.7V27c0-1.4-1.7-2-3.1-2zM23 16.6c0-2.9 2.6-5.2 5.5-5.2s5.5 2.4 5.5 5.2V25H23v-8.4zM35.9 42c-1.3 1.6-2.9 2.5-5.2 2.5-3.6 0-6-2.4-7-5.4h-1.1c-.7 0-1.2-.3-1.2-1s.5-1 1.2-1h.7v-1h-.7c-.7 0-1.2-.8-1.2-1.5s.5-1.5 1.2-1.5h1.1c1-3 3.3-5.4 6.8-5.4 2.4 0 3.9.8 5.1 2.1.2.2.5.7.5 1.2 0 .9-.8 1.7-1.7 1.7-.6 0-1-.3-1.2-.5-.7-.8-1.5-1.2-2.7-1.2-1.4 0-2.4 1.1-3 2.1h3.3c.7 0 1.2.9 1.2 1.5 0 .7-.5 1.5-1.2 1.5H27v1h3.8c.7 0 1.2.4 1.2 1 0 .7-.5 1-1.2 1h-3.3c.6 2 1.7 2.2 3.2 2.2 1.2 0 1.9-.5 2.7-1.4.3-.3.7-.5 1.2-.5.9 0 1.6.7 1.6 1.6 0 .4-.2.8-.3 1z"/>
  </g>
</svg>
