<?xml version="1.0" encoding="UTF-8" standalone="no"?><!DOCTYPE svg PUBLIC "-//W3C//DTD SVG 1.1//EN" "http://www.w3.org/Graphics/SVG/1.1/DTD/svg11.dtd"><svg width="100%" height="100%" viewBox="0 0 294 294" version="1.1" xmlns="http://www.w3.org/2000/svg" xmlns:xlink="http://www.w3.org/1999/xlink" xml:space="preserve" style="fill-rule:evenodd;clip-rule:evenodd;stroke-linejoin:round;stroke-miterlimit:1.41421;"><path d="M146.529,0c-80.925,0 -146.529,65.604 -146.529,146.529c0,80.925 65.604,146.529 146.529,146.529c80.925,0 146.525,-65.604 146.525,-146.529c0,-80.925 -65.6,-146.529 -146.525,-146.529m0,12.213c74.059,0 134.313,60.254 134.313,134.316c0,74.063 -60.254,134.317 -134.313,134.317c-74.062,0 -134.316,-60.254 -134.316,-134.317c0,-74.062 60.254,-134.316 134.316,-134.316" style="fill:#93bf4e;fill-rule:nonzero;"/><path d="M178.235,170.313c-1.192,0 -2.409,-0.267 -3.534,-0.825l-31.716,-15.863c-2.684,-1.346 -4.384,-4.087 -4.384,-7.092l0,-55.5c0,-4.375 3.55,-7.929 7.929,-7.929c4.371,0 7.925,3.554 7.925,7.929l0,50.592l27.33,13.671c3.916,1.958 5.5,6.725 3.545,10.642c-1.391,2.775 -4.191,4.375 -7.095,4.375m55.5,-15.855c-2.063,0 -4.125,-0.875 -5.63,-2.3c-1.433,-1.504 -2.3,-3.57 -2.3,-5.625c0,-2.062 0.867,-4.125 2.3,-5.633c3.013,-2.929 8.325,-2.929 11.263,0c1.425,1.508 2.296,3.571 2.296,5.633c0,2.055 -0.871,4.121 -2.296,5.625c-1.504,1.425 -3.575,2.3 -5.633,2.3m-56.842,-81.179c-4.054,-1.666 -5.946,-6.35 -4.279,-10.387c1.666,-4.046 6.262,-5.946 10.383,-4.284c4.042,1.667 5.946,6.346 4.2,10.392c-1.192,3.008 -4.2,4.833 -7.287,4.833c-1.034,0 -2.067,-0.158 -3.017,-0.554m25.675,17.2c-3.088,-3.096 -3.088,-8.162 0,-11.254c3.1,-3.096 8.096,-3.096 11.179,0c3.104,3.092 3.104,8.158 0,11.254c-1.496,1.509 -3.558,2.3 -5.542,2.3c-2.058,0 -4.041,-0.791 -5.637,-2.3m17.221,25.688c-1.671,-4.046 0.221,-8.725 4.279,-10.384c4.037,-1.666 8.717,0.234 10.383,4.28c1.663,4.041 -0.237,8.72 -4.283,10.387c-1.029,0.392 -2.063,0.638 -3.017,0.638c-3.166,0 -6.108,-1.825 -7.362,-4.921m-73.259,-48.913c-2.062,0 -4.12,-0.875 -5.633,-2.3c-1.425,-1.508 -2.296,-3.575 -2.296,-5.629c0,-2.067 0.871,-4.125 2.296,-5.629c3.013,-2.933 8.325,-2.933 11.258,0c1.43,1.504 2.3,3.562 2.3,5.629c0,2.054 -0.87,4.121 -2.3,5.629c-1.504,1.425 -3.566,2.3 -5.625,2.3m0,174.409c-52.458,0 -95.137,-42.671 -95.137,-95.13c0,-52.458 42.679,-95.137 95.137,-95.137c4.371,0 7.925,3.554 7.925,7.929c0,4.371 -3.554,7.929 -7.925,7.929c-43.716,0 -79.283,35.567 -79.283,79.279c0,43.709 35.567,79.275 79.283,79.275c43.709,0 79.275,-35.566 79.275,-79.275c0,-4.383 3.546,-7.925 7.93,-7.925c4.379,0 7.929,3.542 7.929,7.925c0,52.459 -42.679,95.13 -95.134,95.13" style="fill:#93bf4e;fill-rule:nonzero;"/></svg>